<mxfile host="65bd71144e">
    <diagram id="N6uib-WTAvQgqnyQ_uLX" name="Page-1">
        <mxGraphModel dx="578" dy="1134" grid="1" gridSize="10" guides="1" tooltips="1" connect="1" arrows="1" fold="1" page="1" pageScale="1" pageWidth="850" pageHeight="1100" math="0" shadow="0">
            <root>
                <mxCell id="0"/>
                <mxCell id="1" parent="0"/>
                <mxCell id="31" value="" style="shape=table;startSize=0;container=1;collapsible=0;childLayout=tableLayout;" vertex="1" parent="1">
                    <mxGeometry x="20" y="10" width="220" height="549" as="geometry"/>
                </mxCell>
                <mxCell id="32" value="" style="shape=tableRow;horizontal=0;startSize=0;swimlaneHead=0;swimlaneBody=0;top=0;left=0;bottom=0;right=0;collapsible=0;dropTarget=0;fillColor=none;points=[[0,0.5],[1,0.5]];portConstraint=eastwest;" vertex="1" parent="31">
                    <mxGeometry width="220" height="110" as="geometry"/>
                </mxCell>
                <mxCell id="33" value="Individual" style="shape=partialRectangle;html=1;whiteSpace=wrap;connectable=0;overflow=hidden;fillColor=none;top=0;left=0;bottom=0;right=0;pointerEvents=1;" vertex="1" parent="32">
                    <mxGeometry width="220" height="110" as="geometry">
                        <mxRectangle width="220" height="110" as="alternateBounds"/>
                    </mxGeometry>
                </mxCell>
                <mxCell id="34" value="" style="shape=tableRow;horizontal=0;startSize=0;swimlaneHead=0;swimlaneBody=0;top=0;left=0;bottom=0;right=0;collapsible=0;dropTarget=0;fillColor=none;points=[[0,0.5],[1,0.5]];portConstraint=eastwest;" vertex="1" parent="31">
                    <mxGeometry y="110" width="220" height="179" as="geometry"/>
                </mxCell>
                <mxCell id="35" value="- name: String&lt;br&gt;- gender: String&lt;br&gt;- iD: int&lt;br&gt;-dateLogged: String&lt;br&gt;- dateOfBirth: Date&lt;br&gt;-medInfo: Medical&lt;br&gt;-familyMembers: Family&amp;nbsp;" style="shape=partialRectangle;html=1;whiteSpace=wrap;connectable=0;overflow=hidden;fillColor=none;top=0;left=0;bottom=0;right=0;pointerEvents=1;" vertex="1" parent="34">
                    <mxGeometry width="220" height="179" as="geometry">
                        <mxRectangle width="220" height="179" as="alternateBounds"/>
                    </mxGeometry>
                </mxCell>
                <mxCell id="36" value="" style="shape=tableRow;horizontal=0;startSize=0;swimlaneHead=0;swimlaneBody=0;top=0;left=0;bottom=0;right=0;collapsible=0;dropTarget=0;fillColor=none;points=[[0,0.5],[1,0.5]];portConstraint=eastwest;" vertex="1" parent="31">
                    <mxGeometry y="289" width="220" height="260" as="geometry"/>
                </mxCell>
                <mxCell id="37" value="&lt;font style=&quot;font-size: 8px;&quot;&gt;+ Individual()&lt;br&gt;+ Individual(name: String, gender: string, iD: int)&lt;br&gt;+ getName(): String&lt;br&gt;+ getGender(): String&lt;br&gt;+getDateLogged(): String&lt;br&gt;+ getID(): int&lt;br&gt;+ getDateOfBirth(): Date&lt;br&gt;+ getMedInfo(): Medical&lt;br&gt;+getFamMembers(): Family&lt;br&gt;+ setName(name: String): void&lt;br&gt;+ setGender(gender: String): void&lt;br&gt;+ setID(iD: int): void&lt;br&gt;+setDateLogged(log: String): void&lt;br&gt;+ setDateOfBirth(date: Date): void&lt;br&gt;+ setmedInfo(injuries: List&amp;lt;String&amp;gt;, Supplies: List&amp;lt;String&amp;gt;, treatment: List&amp;lt;Strings&amp;gt;): void&lt;br&gt;+setFamMembers(members: List&amp;lt;String&amp;gt;): void&lt;br&gt;&lt;br&gt;&lt;/font&gt;" style="shape=partialRectangle;html=1;whiteSpace=wrap;connectable=0;overflow=hidden;fillColor=none;top=0;left=0;bottom=0;right=0;pointerEvents=1;" vertex="1" parent="36">
                    <mxGeometry width="220" height="260" as="geometry">
                        <mxRectangle width="220" height="260" as="alternateBounds"/>
                    </mxGeometry>
                </mxCell>
                <mxCell id="39" value="Potential Classes:&lt;br&gt;Individual&lt;br&gt;Centre&lt;br&gt;Medical&lt;br&gt;Family" style="text;html=1;strokeColor=#6F0000;fillColor=#a20025;align=center;verticalAlign=middle;whiteSpace=wrap;rounded=0;fontColor=#ffffff;" vertex="1" parent="1">
                    <mxGeometry x="290" y="485" width="150" height="130" as="geometry"/>
                </mxCell>
                <mxCell id="40" value="" style="shape=table;startSize=0;container=1;collapsible=0;childLayout=tableLayout;" vertex="1" parent="1">
                    <mxGeometry x="250" y="10" width="270" height="430" as="geometry"/>
                </mxCell>
                <mxCell id="41" value="" style="shape=tableRow;horizontal=0;startSize=0;swimlaneHead=0;swimlaneBody=0;top=0;left=0;bottom=0;right=0;collapsible=0;dropTarget=0;fillColor=none;points=[[0,0.5],[1,0.5]];portConstraint=eastwest;" vertex="1" parent="40">
                    <mxGeometry width="270" height="144" as="geometry"/>
                </mxCell>
                <mxCell id="42" value="Centre" style="shape=partialRectangle;html=1;whiteSpace=wrap;connectable=0;overflow=hidden;fillColor=none;top=0;left=0;bottom=0;right=0;pointerEvents=1;" vertex="1" parent="41">
                    <mxGeometry width="270" height="144" as="geometry">
                        <mxRectangle width="270" height="144" as="alternateBounds"/>
                    </mxGeometry>
                </mxCell>
                <mxCell id="43" value="" style="shape=tableRow;horizontal=0;startSize=0;swimlaneHead=0;swimlaneBody=0;top=0;left=0;bottom=0;right=0;collapsible=0;dropTarget=0;fillColor=none;points=[[0,0.5],[1,0.5]];portConstraint=eastwest;" vertex="1" parent="40">
                    <mxGeometry y="144" width="270" height="142" as="geometry"/>
                </mxCell>
                <mxCell id="44" value="- centreName: String&lt;br&gt;- centreAddress: String&lt;br&gt;- centreOccupants: Individual" style="shape=partialRectangle;html=1;whiteSpace=wrap;connectable=0;overflow=hidden;fillColor=none;top=0;left=0;bottom=0;right=0;pointerEvents=1;" vertex="1" parent="43">
                    <mxGeometry width="270" height="142" as="geometry">
                        <mxRectangle width="270" height="142" as="alternateBounds"/>
                    </mxGeometry>
                </mxCell>
                <mxCell id="45" value="" style="shape=tableRow;horizontal=0;startSize=0;swimlaneHead=0;swimlaneBody=0;top=0;left=0;bottom=0;right=0;collapsible=0;dropTarget=0;fillColor=none;points=[[0,0.5],[1,0.5]];portConstraint=eastwest;" vertex="1" parent="40">
                    <mxGeometry y="286" width="270" height="144" as="geometry"/>
                </mxCell>
                <mxCell id="46" value="&lt;font style=&quot;font-size: 11px;&quot;&gt;+ Centre()&lt;br&gt;+ Centre(centreName: String, centreAddress: String)&lt;br&gt;+ getCentreName(): String&lt;br&gt;+ setCentreName(centreName: String): void&lt;br&gt;+ getCentreAddress(): String&lt;br&gt;+ setCentreAddress(centreAddress: String): void&lt;br&gt;+ getOccupants(): Individual&lt;br&gt;+ setOccupants(name: String, gender: String, ID: int): void&amp;nbsp;&lt;/font&gt;" style="shape=partialRectangle;html=1;whiteSpace=wrap;connectable=0;overflow=hidden;fillColor=none;top=0;left=0;bottom=0;right=0;pointerEvents=1;" vertex="1" parent="45">
                    <mxGeometry width="270" height="144" as="geometry">
                        <mxRectangle width="270" height="144" as="alternateBounds"/>
                    </mxGeometry>
                </mxCell>
                <mxCell id="47" value="" style="shape=table;startSize=0;container=1;collapsible=0;childLayout=tableLayout;fontSize=11;" vertex="1" parent="1">
                    <mxGeometry x="530" y="10" width="320" height="370" as="geometry"/>
                </mxCell>
                <mxCell id="48" value="" style="shape=tableRow;horizontal=0;startSize=0;swimlaneHead=0;swimlaneBody=0;top=0;left=0;bottom=0;right=0;collapsible=0;dropTarget=0;fillColor=none;points=[[0,0.5],[1,0.5]];portConstraint=eastwest;fontSize=11;" vertex="1" parent="47">
                    <mxGeometry width="320" height="124" as="geometry"/>
                </mxCell>
                <mxCell id="49" value="Medical" style="shape=partialRectangle;html=1;whiteSpace=wrap;connectable=0;overflow=hidden;fillColor=none;top=0;left=0;bottom=0;right=0;pointerEvents=1;fontSize=11;" vertex="1" parent="48">
                    <mxGeometry width="320" height="124" as="geometry">
                        <mxRectangle width="320" height="124" as="alternateBounds"/>
                    </mxGeometry>
                </mxCell>
                <mxCell id="50" value="" style="shape=tableRow;horizontal=0;startSize=0;swimlaneHead=0;swimlaneBody=0;top=0;left=0;bottom=0;right=0;collapsible=0;dropTarget=0;fillColor=none;points=[[0,0.5],[1,0.5]];portConstraint=eastwest;fontSize=11;" vertex="1" parent="47">
                    <mxGeometry y="124" width="320" height="122" as="geometry"/>
                </mxCell>
                <mxCell id="51" value="-&amp;nbsp; injuries: List&amp;lt;String&amp;gt;&lt;br&gt;- supplies: List&amp;lt;String&amp;gt;&lt;br&gt;- treatment: List&amp;lt;String&amp;gt;" style="shape=partialRectangle;html=1;whiteSpace=wrap;connectable=0;overflow=hidden;fillColor=none;top=0;left=0;bottom=0;right=0;pointerEvents=1;fontSize=11;" vertex="1" parent="50">
                    <mxGeometry width="320" height="122" as="geometry">
                        <mxRectangle width="320" height="122" as="alternateBounds"/>
                    </mxGeometry>
                </mxCell>
                <mxCell id="52" value="" style="shape=tableRow;horizontal=0;startSize=0;swimlaneHead=0;swimlaneBody=0;top=0;left=0;bottom=0;right=0;collapsible=0;dropTarget=0;fillColor=none;points=[[0,0.5],[1,0.5]];portConstraint=eastwest;fontSize=11;" vertex="1" parent="47">
                    <mxGeometry y="246" width="320" height="124" as="geometry"/>
                </mxCell>
                <mxCell id="53" value="+ Medical():&lt;br&gt;+ Medical(injuries: List&amp;lt;String&amp;gt;, supplies: List&amp;lt;String&amp;gt;, treatment: List&amp;lt;String&amp;gt;)&lt;br&gt;+ getInjuries(): List&amp;lt;String&amp;gt;&lt;br&gt;+ getSupplies(): List&amp;lt;String&amp;gt;&lt;br&gt;+ getTreatment(): List&amp;lt;String&amp;gt;&lt;br&gt;+setInjuries(injuries: List&amp;lt;String&amp;gt;): void&lt;br&gt;+setSupplies(supplies: List&amp;lt;String&amp;gt;): void&lt;br&gt;+setTreatment(treatment: List&amp;lt;String&amp;gt;): void" style="shape=partialRectangle;html=1;whiteSpace=wrap;connectable=0;overflow=hidden;fillColor=none;top=0;left=0;bottom=0;right=0;pointerEvents=1;fontSize=11;" vertex="1" parent="52">
                    <mxGeometry width="320" height="124" as="geometry">
                        <mxRectangle width="320" height="124" as="alternateBounds"/>
                    </mxGeometry>
                </mxCell>
                <mxCell id="59" value="" style="shape=table;startSize=0;container=1;collapsible=0;childLayout=tableLayout;fontSize=10;" vertex="1" parent="1">
                    <mxGeometry x="20" y="590" width="220" height="210" as="geometry"/>
                </mxCell>
                <mxCell id="60" value="" style="shape=tableRow;horizontal=0;startSize=0;swimlaneHead=0;swimlaneBody=0;top=0;left=0;bottom=0;right=0;collapsible=0;dropTarget=0;fillColor=none;points=[[0,0.5],[1,0.5]];portConstraint=eastwest;fontSize=10;" vertex="1" parent="59">
                    <mxGeometry width="220" height="70" as="geometry"/>
                </mxCell>
                <mxCell id="61" value="Family" style="shape=partialRectangle;html=1;whiteSpace=wrap;connectable=0;overflow=hidden;fillColor=none;top=0;left=0;bottom=0;right=0;pointerEvents=1;fontSize=10;" vertex="1" parent="60">
                    <mxGeometry width="220" height="70" as="geometry">
                        <mxRectangle width="220" height="70" as="alternateBounds"/>
                    </mxGeometry>
                </mxCell>
                <mxCell id="62" value="" style="shape=tableRow;horizontal=0;startSize=0;swimlaneHead=0;swimlaneBody=0;top=0;left=0;bottom=0;right=0;collapsible=0;dropTarget=0;fillColor=none;points=[[0,0.5],[1,0.5]];portConstraint=eastwest;fontSize=10;" vertex="1" parent="59">
                    <mxGeometry y="70" width="220" height="70" as="geometry"/>
                </mxCell>
                <mxCell id="63" value="- members: List&amp;lt;String&amp;gt;" style="shape=partialRectangle;html=1;whiteSpace=wrap;connectable=0;overflow=hidden;fillColor=none;top=0;left=0;bottom=0;right=0;pointerEvents=1;fontSize=10;" vertex="1" parent="62">
                    <mxGeometry width="220" height="70" as="geometry">
                        <mxRectangle width="220" height="70" as="alternateBounds"/>
                    </mxGeometry>
                </mxCell>
                <mxCell id="64" value="" style="shape=tableRow;horizontal=0;startSize=0;swimlaneHead=0;swimlaneBody=0;top=0;left=0;bottom=0;right=0;collapsible=0;dropTarget=0;fillColor=none;points=[[0,0.5],[1,0.5]];portConstraint=eastwest;fontSize=10;" vertex="1" parent="59">
                    <mxGeometry y="140" width="220" height="70" as="geometry"/>
                </mxCell>
                <mxCell id="65" value="+ Family()&lt;br&gt;+ Family(members: List&amp;lt;String&amp;gt;)&lt;br&gt;+getMembers(): List&amp;lt;String&amp;gt;&lt;br&gt;+setMembers(members: List&amp;lt;String&amp;gt;): void&amp;nbsp;" style="shape=partialRectangle;html=1;whiteSpace=wrap;connectable=0;overflow=hidden;fillColor=none;top=0;left=0;bottom=0;right=0;pointerEvents=1;fontSize=10;" vertex="1" parent="64">
                    <mxGeometry width="220" height="70" as="geometry">
                        <mxRectangle width="220" height="70" as="alternateBounds"/>
                    </mxGeometry>
                </mxCell>
            </root>
        </mxGraphModel>
    </diagram>
</mxfile>